<?xml version="1.0" encoding="UTF-8" standalone="no"?>
<!-- Created with Inkscape (http://www.inkscape.org/) -->

<svg
   width="18.1mm"
   height="10mm"
   viewBox="0 0 18.1 10"
   version="1.1"
   id="svg5"
   xml:space="preserve"
   inkscape:version="1.2.2 (b0a8486541, 2022-12-01)"
   sodipodi:docname="1.svg"
   xmlns:inkscape="http://www.inkscape.org/namespaces/inkscape"
   xmlns:sodipodi="http://sodipodi.sourceforge.net/DTD/sodipodi-0.dtd"
   xmlns="http://www.w3.org/2000/svg"
   xmlns:svg="http://www.w3.org/2000/svg"><sodipodi:namedview
     id="namedview7"
     pagecolor="#ffffff"
     bordercolor="#000000"
     borderopacity="0.25"
     inkscape:showpageshadow="2"
     inkscape:pageopacity="0.0"
     inkscape:pagecheckerboard="0"
     inkscape:deskcolor="#d1d1d1"
     inkscape:document-units="mm"
     showgrid="false"
     inkscape:zoom="7.2218257"
     inkscape:cx="-23.678223"
     inkscape:cy="38.355952"
     inkscape:window-width="2494"
     inkscape:window-height="1524"
     inkscape:window-x="0"
     inkscape:window-y="0"
     inkscape:window-maximized="1"
     inkscape:current-layer="layer1" /><defs
     id="defs2" /><g
     inkscape:label="Layer 1"
     inkscape:groupmode="layer"
     id="layer1"><path
       style="fill:#000000;stroke-width:0.144787"
       d="M 2.8772726,9.9983876 2.7590648,10 2.8048789,9.6073797 2.8506929,9.2147594 3.4298431,9.0409252 4.0089934,8.8670911 5.6738032,8.3546313 7.3386131,7.8421707 7.4610292,7.9645872 7.583445,8.0870029 7.5333271,8.3472431 7.4832093,8.6074842 6.6872203,8.854675 5.8912314,9.1018665 4.4433558,9.5492824 2.9954802,9.9966982 2.8772724,9.9983106 Z M 9.2114546,8.5521629 H 8.7267959 L 8.3719571,7.9368159 8.0171183,7.3214686 7.7874479,6.6308603 7.5577775,5.9402522 7.4659108,4.9518028 7.3740441,3.9633536 7.5452943,2.9799623 7.7165446,1.9965709 8.0872849,1.2565121 8.4580256,0.51645335 8.6855292,0.25822663 8.9130327,0 l 0.6609128,0.08230973 0.6609125,0.08230973 0.868726,0.15793135 0.868725,0.15793135 1.022946,0.48111251 1.022944,0.48111243 0.661016,0.70668 0.661017,0.70668 0.151013,0.7124312 0.151013,0.7124311 -0.114369,0.6158372 -0.114369,0.6158373 -0.383006,0.5526775 -0.383005,0.5526778 -0.46443,0.3433677 -0.46443,0.3433677 L 12.896814,7.702797 12.074979,8.1008988 10.885546,8.3265304 9.6961133,8.552162 Z M 10.138993,7.6111959 10.916797,7.5140156 11.58934,7.3137074 12.261884,7.1133992 13.05229,6.6382835 13.842696,6.1631682 14.319182,5.5365653 14.795667,4.9099624 14.793285,4.3782648 14.790903,3.8465672 14.464897,3.2709654 14.138891,2.6953636 13.387995,2.1707648 12.637099,1.6461661 11.839663,1.3953417 11.042227,1.1445174 10.265882,1.0391651 9.4895366,0.93381272 9.3161978,0.99159238 9.1428592,1.0493719 8.9061699,1.5068505 8.6694808,1.9643289 8.4765721,2.6882668 8.2836634,3.4122045 8.2819435,4.365608 8.2802236,5.3190115 8.5832413,6.2478463 8.886259,7.1766811 9.1237226,7.4425285 9.3611862,7.708376 Z M 3.0558086,8.251909 2.8265616,8.2625865 2.745784,8.1818067 2.6650063,8.1010269 2.7379355,7.8221509 2.8108647,7.5432694 3.2651415,7.4055816 3.7194183,7.2678937 5.1460767,6.7517278 6.5727352,6.2355619 h 0.1394249 0.139425 L 6.805771,6.6298266 6.759957,7.0240913 5.0225063,7.6326605 3.2850556,8.2412297 Z M 3.0316774,6.6069469 2.6335115,6.7013168 V 6.3378157 5.9743145 L 3.0316774,5.82542 3.4298431,5.6765256 4.8474276,5.1597121 6.2650121,4.6428988 H 6.4038939 6.5427757 V 4.9847406 5.3265825 L 4.9863094,5.9195797 3.4298431,6.5125768 Z M 2.8163457,5.0517653 2.6326358,5.0986629 2.5451893,4.8707809 2.4577427,4.6428988 l 0.08334,-0.2171813 0.08334,-0.2171814 0.1855286,-0.00279 0.1855286,-0.00279 1.7374507,-0.6343353 1.7374507,-0.6343355 0.1085907,0.066517 0.1085907,0.066517 V 3.3860272 3.704729 L 4.8438095,4.3547983 3.0000557,5.0048677 Z M 3.0240898,3.3405312 2.6183365,3.4687364 2.5380396,3.2594861 2.4577427,3.0502356 2.5323904,2.855707 2.607038,2.6611783 4.1043473,2.1857779 5.6016565,1.7103774 6.2220636,1.5115811 6.8424706,1.312785 H 7.0545921 7.2667135 V 1.6659919 2.0191992 L 5.9998224,2.4066879 4.7329312,2.7941768 4.0813872,3.0032513 3.4298431,3.2123258 Z"
       id="path16807" /></g></svg>
