<?xml version="1.0" encoding="UTF-8" standalone="no"?>
<!-- Created with Inkscape (http://www.inkscape.org/) -->

<svg
   width="18.1mm"
   height="10mm"
   viewBox="0 0 18.1 10"
   version="1.1"
   id="svg5"
   xml:space="preserve"
   inkscape:version="1.2.2 (b0a8486541, 2022-12-01)"
   sodipodi:docname="2.svg"
   xmlns:inkscape="http://www.inkscape.org/namespaces/inkscape"
   xmlns:sodipodi="http://sodipodi.sourceforge.net/DTD/sodipodi-0.dtd"
   xmlns="http://www.w3.org/2000/svg"
   xmlns:svg="http://www.w3.org/2000/svg"><sodipodi:namedview
     id="namedview7"
     pagecolor="#ffffff"
     bordercolor="#000000"
     borderopacity="0.25"
     inkscape:showpageshadow="2"
     inkscape:pageopacity="0.0"
     inkscape:pagecheckerboard="0"
     inkscape:deskcolor="#d1d1d1"
     inkscape:document-units="mm"
     showgrid="false"
     inkscape:zoom="7.2218257"
     inkscape:cx="-23.678223"
     inkscape:cy="38.355952"
     inkscape:window-width="2494"
     inkscape:window-height="1524"
     inkscape:window-x="0"
     inkscape:window-y="0"
     inkscape:window-maximized="1"
     inkscape:current-layer="layer1" /><defs
     id="defs2" /><g
     inkscape:label="Layer 1"
     inkscape:groupmode="layer"
     id="layer1"><path
       style="fill:#000000;stroke-width:0.144288"
       d="M 10.792095,9.9056183 10.41605,10 10.105514,9.170017 9.7949777,8.3400343 9.5856794,7.3450649 9.3763811,6.3500954 V 5.2928028 4.2355103 L 9.6049643,3.1301989 9.8335474,2.0248875 10.229498,1.0586628 10.625449,0.09243807 10.864396,0.04621904 11.103344,0 l 0.936006,0.4607944 0.936006,0.4607944 0.709617,0.7503149 0.709616,0.750315 0.333049,0.6387084 0.333049,0.6387085 0.0058,1.1543031 0.0058,1.1543031 -0.40147,0.8210204 -0.401471,0.8210202 -0.759941,0.6940023 -0.759943,0.6940028 -0.790679,0.3864746 -0.790679,0.3864746 -0.376046,0.094382 z M 11.220824,8.8966412 11.591389,8.8036355 12.355399,8.2965147 13.11941,7.7893935 13.562614,7.1873933 14.005818,6.5853931 14.23043,5.8139381 14.455042,5.0424829 14.365074,4.4425335 14.275106,3.8425844 13.845336,3.0900858 13.415566,2.3375873 12.658492,1.7739517 11.90142,1.210316 11.558422,1.0332718 11.215424,0.85622742 11.09015,1.0514843 10.964876,1.2467412 10.690089,1.9710373 10.415301,2.6953335 10.233298,4.086463 l -0.182003,1.3911295 0.17154,1.0589078 0.17154,1.0589081 0.227942,0.6971192 0.227942,0.6971189 z M 5.4005583,9.5432942 H 5.0477442 V 9.1910906 8.8388863 L 4.9128694,8.7555291 4.7779944,8.6721719 4.1277102,8.9881036 3.4774259,9.3040364 3.2525698,9.1174228 3.0277137,8.9308083 V 8.8057987 8.6807878 L 4.1711286,8.1058908 5.3145434,7.5309928 5.5418636,7.2064479 5.7691836,6.8819031 V 6.5487598 6.2156165 L 5.5590772,6.1349911 5.3489706,6.0543657 4.3814804,6.5681051 3.4139903,7.0818445 3.2254408,6.8336188 3.0368914,6.5853931 3.0323025,6.4759961 3.0277137,6.3665989 4.0937764,5.8390971 5.1598393,5.3115952 5.2349709,4.6499031 5.3101024,3.9882111 5.2493878,3.9264118 5.1886733,3.8646125 4.3314017,4.2743507 3.4741302,4.6840889 3.2509219,4.4988426 3.0277137,4.3135963 V 4.1830385 4.0524807 L 4.2695148,3.4510556 5.5113158,2.8496305 5.5815777,2.6665307 5.6518397,2.4834311 5.3497918,2.0592442 5.0477442,1.6350573 V 0.97196365 0.30886993 h 0.3607197 0.3607197 l 0.00518,0.54107959 0.00518,0.54107958 0.3513659,0.43 0.3513582,0.43 L 6.9553854,2.0553799 7.4284945,1.8597305 7.7852517,1.8418116 8.1420087,1.8238926 8.1919855,2.0730879 8.2419623,2.322283 7.4300799,2.720468 6.6181968,3.1186528 6.3379781,3.7521334 6.0577595,4.3856141 v 0.1980902 0.1980902 h 0.076258 0.076258 L 7.051332,4.3572311 7.8923874,3.9326676 8.0572327,4.0975129 8.2220779,4.2623581 V 4.4478553 4.6333526 L 7.3202786,5.0853942 6.4184792,5.5374357 6.3729241,5.577914 6.327369,5.6183924 6.4867017,6.2101086 6.6460343,6.8018249 h 0.072331 0.072331 L 7.3479768,6.5175211 7.9052584,6.2332173 8.0773092,6.440526 8.24936,6.6478346 8.1951292,6.8105278 8.1408984,6.9732213 6.9911133,7.5728907 5.8413282,8.1725596 5.7973508,8.857927 5.7533734,9.5432942 Z"
       id="path16843" /></g></svg>
