<?xml version="1.0" encoding="UTF-8" standalone="no"?>
<!-- Created with Inkscape (http://www.inkscape.org/) -->

<svg
   width="18.1mm"
   height="10mm"
   viewBox="0 0 18.1 10"
   version="1.1"
   id="svg5"
   xml:space="preserve"
   inkscape:version="1.2.2 (b0a8486541, 2022-12-01)"
   sodipodi:docname="3.svg"
   xmlns:inkscape="http://www.inkscape.org/namespaces/inkscape"
   xmlns:sodipodi="http://sodipodi.sourceforge.net/DTD/sodipodi-0.dtd"
   xmlns="http://www.w3.org/2000/svg"
   xmlns:svg="http://www.w3.org/2000/svg"><sodipodi:namedview
     id="namedview7"
     pagecolor="#ffffff"
     bordercolor="#000000"
     borderopacity="0.25"
     inkscape:showpageshadow="2"
     inkscape:pageopacity="0.0"
     inkscape:pagecheckerboard="0"
     inkscape:deskcolor="#d1d1d1"
     inkscape:document-units="mm"
     showgrid="false"
     inkscape:zoom="7.2218257"
     inkscape:cx="-23.539754"
     inkscape:cy="38.355952"
     inkscape:window-width="2494"
     inkscape:window-height="1524"
     inkscape:window-x="0"
     inkscape:window-y="0"
     inkscape:window-maximized="1"
     inkscape:current-layer="layer1" /><defs
     id="defs2" /><g
     inkscape:label="Layer 1"
     inkscape:groupmode="layer"
     id="layer1"><path
       style="fill:#000000;stroke-width:0.141031"
       d="m 10.526387,10 h -0.09358 L 10.235802,9.5285028 10.038797,9.0570056 9.7795199,8.2239611 9.5202424,7.3909166 9.5162789,5.3459592 9.5123152,3.3010017 9.7103059,2.595844 9.9082964,1.8906863 10.249757,1.0202669 10.591217,0.1498477 10.786465,0.07492389 10.981714,0 l 0.957679,0.47942486 0.957679,0.47942494 0.64617,0.6285387 0.646169,0.6285386 0.411568,0.8134484 0.411567,0.8134485 V 4.9117126 5.9806011 L 14.629286,6.7609756 14.246027,7.5413502 13.57155,8.2181506 12.897072,8.8949504 11.75852,9.4474752 10.619968,10 Z m 0.453958,-0.9872211 h 0.118306 L 11.718498,8.6663405 12.338345,8.3199013 12.926434,7.816519 13.514523,7.3131369 13.908606,6.5076623 14.302687,5.7021877 V 4.9228645 4.1435413 L 13.908606,3.3380668 13.514523,2.5325922 12.923735,2.0230377 12.332947,1.5134831 11.793331,1.235383 11.253715,0.95728286 l -0.2008,0.16664934 -0.2008,0.1666492 v 0.2365883 0.2365882 l -0.123352,0.1339799 -0.123352,0.13398 -0.229227,1.0397783 -0.229227,1.0397786 v 1.1888858 1.188886 l 0.228435,1.0150613 0.228434,1.0150605 0.129107,0.2468053 0.129106,0.2468053 z M 3.5179101,9.2681544 3.3965396,9.3119814 3.2489232,9.0361574 3.1013067,8.7603343 3.2746326,8.6208113 3.4479585,8.4812891 4.4599438,7.9748721 5.4719292,7.4684552 5.5549026,7.3342012 5.6378762,7.1999473 6.1647801,7.0391909 6.6916842,6.8784345 7.2269652,6.5931793 7.7622463,6.3079239 7.9673808,6.3866419 8.1725154,6.465359 V 6.7197483 6.9741375 L 5.905898,8.0992322 3.6392805,9.2243265 Z M 3.4927649,7.0116496 3.3965396,7.0554773 3.2489232,6.7796534 3.1013067,6.5038296 3.2746326,6.3682987 3.4479585,6.2327676 4.2818883,5.781509 5.1158179,5.3302503 5.4644179,5.0560417 5.8130178,4.781833 6.1113195,4.7792781 6.4096211,4.7767232 7.1451928,4.3711543 7.8807646,3.9655854 8.0424181,4.1603657 8.2040714,4.3551463 8.1346364,4.5360912 8.0652014,4.7170362 5.8270956,5.842429 3.58899,6.9678219 Z M 3.4850314,4.6408014 H 3.3873668 L 3.2374107,4.360606 3.0874547,4.0804106 4.1844118,3.5362673 5.2813687,2.992124 6.4434164,2.4061472 7.6054642,1.8201704 H 7.8889898 8.1725154 V 2.0947742 2.3693779 L 5.8776082,3.5050897 3.5827011,4.6408014 Z"
       id="path16879" /></g></svg>
