<?xml version="1.0" encoding="UTF-8" standalone="no"?>
<!-- Created with Inkscape (http://www.inkscape.org/) -->

<svg
   width="18.1mm"
   height="10mm"
   viewBox="0 0 18.1 10"
   version="1.1"
   id="svg5"
   xml:space="preserve"
   inkscape:version="1.2.2 (b0a8486541, 2022-12-01)"
   sodipodi:docname="5.svg"
   xmlns:inkscape="http://www.inkscape.org/namespaces/inkscape"
   xmlns:sodipodi="http://sodipodi.sourceforge.net/DTD/sodipodi-0.dtd"
   xmlns="http://www.w3.org/2000/svg"
   xmlns:svg="http://www.w3.org/2000/svg"><sodipodi:namedview
     id="namedview7"
     pagecolor="#ffffff"
     bordercolor="#000000"
     borderopacity="0.25"
     inkscape:showpageshadow="2"
     inkscape:pageopacity="0.0"
     inkscape:pagecheckerboard="0"
     inkscape:deskcolor="#d1d1d1"
     inkscape:document-units="mm"
     showgrid="false"
     inkscape:zoom="7.2218257"
     inkscape:cx="-23.539754"
     inkscape:cy="38.355952"
     inkscape:window-width="2494"
     inkscape:window-height="1524"
     inkscape:window-x="0"
     inkscape:window-y="0"
     inkscape:window-maximized="1"
     inkscape:current-layer="layer1" /><defs
     id="defs2" /><g
     inkscape:label="Layer 1"
     inkscape:groupmode="layer"
     id="layer1"><path
       style="fill:#000000;stroke-width:0.202319"
       d="M 9.0839738,9.9866854 7.8619879,9.9733696 6.8047727,9.6886218 5.7475575,9.4038742 4.488303,8.7682048 3.2290488,8.1325351 1.6249793,6.5562209 0.02090969,4.9799067 0.80550636,4.0336584 1.5901032,3.0874102 2.9051758,2.09554 4.2202483,1.1036698 5.5353209,0.55183503 6.8503936,0 9.1770605,0.00117345 11.503728,0.0023469 l 1.091338,0.45520289 1.091339,0.45520301 1.127106,0.7481304 1.127105,0.7481304 1.069238,1.0864578 1.069237,1.0864424 V 4.9385689 5.2952244 L 16.610957,6.6865975 15.142824,8.0779706 13.913752,8.7291962 12.684681,9.3804217 11.49532,9.6902106 10.30596,10 Z M 6.2620702,8.3814488 h 0.055163 L 5.6227988,7.3495237 4.9283644,6.3175986 V 5.0128097 3.7080208 L 5.2555085,3.0605316 5.5826526,2.4130424 5.9988915,1.9578251 6.4151304,1.5026076 H 6.2729345 6.1307387 L 4.9363697,2.1055231 3.7420008,2.7084386 2.5648926,3.8252333 1.3877843,4.9420283 2.5348557,6.0308648 3.681927,7.1197014 4.9444171,7.7505751 6.2069072,8.3814488 Z M 12.771418,8.0727983 13.526917,7.761389 14.541542,7.0679353 15.556167,6.3744815 16.261252,5.6418138 16.966338,4.909146 15.789229,3.8087923 14.612121,2.7084386 13.417752,2.1055231 12.223383,1.5026076 h -0.102755 -0.102755 l 0.653368,0.926939 0.653367,0.926939 V 4.9420283 6.5275708 L 12.670259,7.455889 12.015919,8.3842074 Z M 9.1464842,8.1745231 10.026343,8.1791299 10.71844,7.8507084 11.410537,7.522287 11.851561,6.9029249 12.292587,6.2835629 12.376872,5.1183197 12.461159,3.9530766 12.022825,3.2438373 11.584491,2.5345982 10.8755,2.0964179 10.166509,1.6582375 H 9.2010836 8.2356584 L 7.6114696,1.9810181 6.9872809,2.3037985 6.5654653,2.8400501 6.1436499,3.3763018 5.9485257,4.1085852 5.7534016,4.8408688 5.9230428,5.5840881 6.0926837,6.3273075 6.5156811,6.9213527 6.9386786,7.5153977 7.6026521,7.8426569 8.2666256,8.1699163 Z M 9.136528,6.7500738 8.8735822,6.7372493 8.4400127,6.5622825 8.006443,6.3873155 7.6813169,5.9231329 7.3561907,5.4589505 V 4.902069 4.3451876 L 7.9375475,4.4614591 8.5189043,4.5777305 8.8327196,4.1296959 9.1465352,3.6816616 9.0389926,3.4014102 8.9314498,3.1211584 h 0.3989993 0.3989991 l 0.5175478,0.4071032 0.517548,0.4071032 0.125049,0.5693435 0.125049,0.5693433 -0.201983,0.5312547 -0.201983,0.5312545 -0.605601,0.3131686 -0.6056013,0.3131686 z"
       id="path16992" /></g></svg>
