<?xml version="1.0" encoding="UTF-8" standalone="no"?>
<!-- Created with Inkscape (http://www.inkscape.org/) -->

<svg
   width="18.1mm"
   height="10mm"
   viewBox="0 0 18.1 10"
   version="1.1"
   id="svg5"
   xml:space="preserve"
   inkscape:version="1.2.2 (b0a8486541, 2022-12-01)"
   sodipodi:docname="6.svg"
   xmlns:inkscape="http://www.inkscape.org/namespaces/inkscape"
   xmlns:sodipodi="http://sodipodi.sourceforge.net/DTD/sodipodi-0.dtd"
   xmlns="http://www.w3.org/2000/svg"
   xmlns:svg="http://www.w3.org/2000/svg"><sodipodi:namedview
     id="namedview7"
     pagecolor="#ffffff"
     bordercolor="#000000"
     borderopacity="0.25"
     inkscape:showpageshadow="2"
     inkscape:pageopacity="0.0"
     inkscape:pagecheckerboard="0"
     inkscape:deskcolor="#d1d1d1"
     inkscape:document-units="mm"
     showgrid="false"
     inkscape:zoom="7.2218257"
     inkscape:cx="-23.678223"
     inkscape:cy="38.355952"
     inkscape:window-width="2494"
     inkscape:window-height="1524"
     inkscape:window-x="0"
     inkscape:window-y="0"
     inkscape:window-maximized="1"
     inkscape:current-layer="layer1" /><defs
     id="defs2" /><g
     inkscape:label="Layer 1"
     inkscape:groupmode="layer"
     id="layer1"><path
       style="fill:#000000;stroke-width:0.153559"
       d="M 6.948959,9.9458443 6.7674069,10 6.6141658,9.7136667 6.4609246,9.4273334 6.6014177,9.2052685 6.7419107,8.9832037 6.7442583,8.7912555 6.7466059,8.5993063 H 5.0456512 3.3446889 L 2.8958238,8.1504446 2.4469587,7.7015791 V 4.2553961 0.80921292 L 2.7652222,0.40460655 3.0834858,0 H 9.0634025 15.04332 l 0.304287,0.49906708 0.304287,0.49906698 5.69e-4,3.19397704 5.79e-4,3.1939769 -0.237694,0.4596485 -0.237693,0.4596487 -0.38654,0.1469624 -0.386539,0.1469615 h -1.21129 -1.211292 L 11.676325,9.2903253 11.370656,9.9813415 H 11.227265 11.083874 L 10.888935,9.7464553 10.693997,9.511569 10.869199,9.1270416 11.044402,8.7425134 10.827968,8.6594602 10.611534,8.576407 10.18642,8.6262446 9.7613052,8.6760822 9.646646,9.1081871 9.5319868,9.5402921 9.3516485,9.7575872 9.1713103,9.9748813 8.865845,9.8114006 8.5603797,9.6479209 8.6342093,9.3923405 8.7080388,9.1367593 8.8186692,8.8680314 8.9292998,8.5993025 H 8.3330493 7.7367994 L 7.4336554,9.2454969 7.1305113,9.8916857 Z M 4.6478097,7.6779547 H 5.9273059 L 5.8627317,6.8717695 5.7981575,6.0655842 6.2695911,5.3745682 6.7410248,4.6835523 6.7404106,4.3764342 6.7397963,4.069316 6.4394953,3.6854183 6.1392062,3.3015205 6.1368035,3.0711819 6.1344003,2.8408432 6.4194318,2.4085442 6.7044633,1.976245 7.0366326,2.5392302 7.3688018,3.1022152 7.4626589,4.00019 7.5565159,4.8981647 7.0747849,5.6488772 6.5930545,6.3995898 v 0.2837774 0.2837775 l 0.3338856,0.355405 0.3338858,0.355405 H 7.7050837 8.1493414 L 8.0399158,7.333185 7.9304902,6.9884154 7.943125,6.5440093 7.9557599,6.0996031 8.4260999,5.3429847 8.896441,4.5863662 V 4.3423356 4.0983052 L 8.5132632,3.5959332 8.1300855,3.0935614 8.3980939,2.6226652 8.6661023,2.151769 8.8296102,2.1507982 8.993118,2.1498273 l 0.2736255,0.5737988 0.2736256,0.5737987 0.082658,0.8008825 0.082658,0.8008826 -0.481402,0.7501998 -0.481402,0.7502001 v 0.2837774 0.2837775 l 0.3338857,0.355405 0.3338857,0.355405 H 9.8445631 10.278473 V 7.59108 7.5042052 L 10.107392,7.1845374 9.9363108,6.8648696 10.11477,6.2692244 10.29323,5.6735794 10.669749,5.1187474 11.046268,4.5639153 V 4.3447597 4.125604 l -0.388927,-0.5099096 -0.388927,-0.5099095 0.333223,-0.56477 0.333222,-0.5647699 0.286918,0.4322992 0.286916,0.432299 0.15183,0.5374568 0.151828,0.5374568 8.6e-4,0.4690032 8.6e-4,0.4690033 -0.460677,0.7264126 -0.460678,0.7264127 v 0.3517973 0.3517974 l 0.361611,0.3397152 0.36161,0.3397151 1.51949,-0.044219 1.519481,-0.044219 V 4.2228751 0.84457498 L 9.1364284,0.80421445 3.6179494,0.76385393 3.4891314,0.89267184 3.3603136,1.0214897 l -0.00301,2.8291655 -0.00301,2.8291653 0.007,0.4990671 0.007,0.4990671 z"
       id="path17040" /></g></svg>
