<?xml version="1.0" encoding="UTF-8" standalone="no"?>
<!-- Created with Inkscape (http://www.inkscape.org/) -->

<svg
   width="18.1mm"
   height="10mm"
   viewBox="0 0 18.1 10"
   version="1.1"
   id="svg5"
   xml:space="preserve"
   inkscape:version="1.2.2 (b0a8486541, 2022-12-01)"
   sodipodi:docname="7.svg"
   xmlns:inkscape="http://www.inkscape.org/namespaces/inkscape"
   xmlns:sodipodi="http://sodipodi.sourceforge.net/DTD/sodipodi-0.dtd"
   xmlns="http://www.w3.org/2000/svg"
   xmlns:svg="http://www.w3.org/2000/svg"><sodipodi:namedview
     id="namedview7"
     pagecolor="#ffffff"
     bordercolor="#000000"
     borderopacity="0.25"
     inkscape:showpageshadow="2"
     inkscape:pageopacity="0.0"
     inkscape:pagecheckerboard="0"
     inkscape:deskcolor="#d1d1d1"
     inkscape:document-units="mm"
     showgrid="false"
     inkscape:zoom="7.2218257"
     inkscape:cx="-23.539754"
     inkscape:cy="38.355952"
     inkscape:window-width="2494"
     inkscape:window-height="1524"
     inkscape:window-x="0"
     inkscape:window-y="0"
     inkscape:window-maximized="1"
     inkscape:current-layer="layer1" /><defs
     id="defs2" /><g
     inkscape:label="Layer 1"
     inkscape:groupmode="layer"
     id="layer1"><path
       style="fill:#000000;stroke-width:0.138606"
       d="M 9.0500004,10 H 3.2864897 L 3.7394747,9.2030149 4.1924598,8.4060301 6.5297827,4.3171508 8.8671057,0.22827098 8.9801579,0.11413552 9.0932101,0 9.4358233,0.59925686 9.7784364,1.1985137 l 1.0753906,1.8711822 1.075391,1.8711823 0.421045,0.7623335 0.421046,0.7623335 0.257582,0.3679118 0.257582,0.367912 V 7.286682 7.371994 L 13.606341,7.8890123 13.926209,8.4060301 14.36986,9.2030149 14.813511,10 Z m 0.00899,-0.69303 H 13.42508 V 9.1656095 9.024249 L 13.10059,8.5072307 12.776102,7.9902121 12.428432,7.3664848 12.080762,6.7427573 10.932851,4.732969 9.7849385,2.7231807 9.4701638,2.1687563 9.155389,1.6143319 9.0378853,1.6283932 8.9203816,1.6424545 8.4532707,2.4600298 7.98616,3.277605 7.6705776,3.8320294 7.3549953,4.3864538 6.3236465,6.188333 5.2922978,7.9902121 4.9931148,8.4753335 4.6939316,8.9604546 4.6934188,9.1337123 4.6928955,9.30697 Z M 8.9896846,8.7525452 H 5.6631382 V 8.7019612 8.6513773 L 6.7245461,6.7961314 7.7859541,4.9408782 8.3531679,3.9360531 8.9203816,2.931228 9.0589877,2.975494 9.1975938,3.01976 l 1.5526822,2.693135 1.552681,2.6931348 0.0067,0.1732577 0.0067,0.1732574 z M 9.2240652,8.0434366 10.91381,8.0595181 10.992995,7.931394 11.072177,7.80327 10.134887,6.1338472 9.1975938,4.4644268 9.0589877,4.4612763 8.9203816,4.4581257 7.9847904,6.1036531 7.0491992,7.7491805 v 0.075701 0.075703 l 0.2425606,0.063385 0.2425607,0.063385 z"
       id="path17076" /></g></svg>
